<?xml version="1.0" encoding="iso-8859-1"?>
<!-- Generator: Adobe Illustrator 18.1.1, SVG Export Plug-In . SVG Version: 6.00 Build 0)  -->
<svg version="1.1" id="Capa_1" xmlns="http://www.w3.org/2000/svg" xmlns:xlink="http://www.w3.org/1999/xlink" x="0px" y="0px"
	 viewBox="0 0 16 16" style="enable-background:new 0 0 16 16;" xml:space="preserve">
<g>
	<g>
		<g>
			<path style="fill:#010002;" d="M9.259,8.636l1.737,0.114c0.107-0.189,0.208-0.386,0.297-0.592
				c0.089-0.205,0.162-0.413,0.227-0.622l-1.273-1.185c0.043-0.339,0.049-0.677,0.018-1.01l1.305-1.145
				c-0.116-0.427-0.28-0.839-0.488-1.229L9.344,3.03C9.139,2.765,8.903,2.523,8.639,2.307L8.752,0.57
				C8.563,0.462,8.365,0.362,8.16,0.273C7.955,0.185,7.747,0.111,7.538,0.047L6.354,1.322c-0.339-0.043-0.677-0.049-1.01-0.016
				L4.196,0C3.769,0.117,3.357,0.281,2.967,0.489L3.03,2.224C2.765,2.429,2.523,2.665,2.307,2.929L0.57,2.816
				c-0.108,0.19-0.208,0.386-0.297,0.592C0.185,3.613,0.111,3.821,0.047,4.03l1.275,1.185c-0.043,0.339-0.049,0.677-0.016,1.01
				L0,7.37C0.117,7.796,0.281,8.209,0.489,8.6l1.735-0.064C2.429,8.801,2.666,9.043,2.93,9.259l-0.114,1.737
				c0.19,0.107,0.386,0.208,0.592,0.297c0.205,0.089,0.413,0.162,0.622,0.227l1.185-1.273c0.339,0.043,0.677,0.049,1.01,0.016
				L7.37,11.57c0.427-0.116,0.839-0.28,1.229-0.488L8.536,9.344C8.801,9.137,9.043,8.9,9.259,8.636z M4.595,8.538
				C3.073,7.882,2.372,6.117,3.028,4.595c0.656-1.521,2.421-2.223,3.943-1.567c1.521,0.656,2.222,2.421,1.567,3.943
				C7.882,8.493,6.117,9.193,4.595,8.538z"/>
			<circle style="fill:#010002;" cx="5.783" cy="5.783" r="1.5"/>
			<path style="fill:#010002;" d="M15.979,12.885L16,12.5l-0.021-0.386l-0.957-0.341l-0.414-0.146l0.188-0.398l0.435-0.914
				c-0.16-0.2-0.344-0.385-0.545-0.547l-0.916,0.437l-0.396,0.188l-0.146-0.414l-0.34-0.957L12.5,9l-0.387,0.021l-0.34,0.957
				l-0.146,0.414l-0.398-0.188l-0.914-0.435c-0.201,0.16-0.385,0.345-0.547,0.545l0.436,0.916l0.189,0.397l-0.414,0.147l-0.957,0.34
				L9,12.5l0.021,0.385l0.957,0.34l0.414,0.147l-0.188,0.397l-0.435,0.916c0.16,0.2,0.344,0.383,0.545,0.545l0.916-0.435
				l0.397-0.188l0.147,0.414l0.34,0.957L12.5,16l0.387-0.021l0.34-0.957l0.146-0.414l0.398,0.188l0.914,0.435
				c0.201-0.16,0.385-0.344,0.547-0.545l-0.437-0.916l-0.188-0.396l0.414-0.146L15.979,12.885z M12.5,13.25
				c-0.414,0-0.75-0.336-0.75-0.75s0.336-0.75,0.75-0.75s0.75,0.336,0.75,0.75S12.914,13.25,12.5,13.25z"/>
		</g>
	</g>
</g>
<g>
</g>
<g>
</g>
<g>
</g>
<g>
</g>
<g>
</g>
<g>
</g>
<g>
</g>
<g>
</g>
<g>
</g>
<g>
</g>
<g>
</g>
<g>
</g>
<g>
</g>
<g>
</g>
<g>
</g>
</svg>
