<?xml version="1.0" encoding="iso-8859-1"?>
<!-- Generator: Adobe Illustrator 16.0.0, SVG Export Plug-In . SVG Version: 6.00 Build 0)  -->
<!DOCTYPE svg PUBLIC "-//W3C//DTD SVG 1.1//EN" "http://www.w3.org/Graphics/SVG/1.1/DTD/svg11.dtd">
<svg version="1.1" id="Capa_1" xmlns="http://www.w3.org/2000/svg" xmlns:xlink="http://www.w3.org/1999/xlink" x="0px" y="0px"
	 width="98.491px" height="98.491px" viewBox="0 0 98.491 98.491" style="enable-background:new 0 0 98.491 98.491;"
	 xml:space="preserve">
<g>
	<g>
		<path d="M67.326,44.105H31.164c-3.452,0-6.249,2.798-6.249,6.25v33.848c0,3.451,2.797,6.249,6.249,6.249h36.162
			c3.452,0,6.249-2.798,6.249-6.249V50.354C73.575,46.903,70.778,44.105,67.326,44.105z M62.092,47.921
			c1.67,0,3.021,1.353,3.021,3.021c0,1.67-1.354,3.021-3.021,3.021c-1.67,0-3.022-1.354-3.022-3.021
			C59.069,49.274,60.422,47.921,62.092,47.921z M36.399,47.921c1.669,0,3.023,1.353,3.023,3.021c0,1.67-1.354,3.021-3.023,3.021
			s-3.021-1.354-3.021-3.021C33.378,49.274,34.73,47.921,36.399,47.921z M67.075,82.22c0,0.957-0.774,1.731-1.731,1.731H33.146
			c-0.956,0-1.731-0.774-1.731-1.731V59.647c0-0.955,0.775-1.729,1.731-1.729h32.198c0.957,0,1.731,0.774,1.731,1.729V82.22z"/>
		<polygon points="42.532,65.203 51.248,65.203 51.248,65.263 43.41,80.558 48.119,80.558 55.958,64.326 55.958,61.546 
			42.532,61.546 		"/>
		<path d="M78.527,23.098c-0.545-0.039-1.046-0.318-1.366-0.762c-4.001-5.552-10.521-8.986-17.462-8.986
			c-0.503,0-1.007,0.019-1.51,0.054c-0.45,0.031-0.895-0.104-1.254-0.378C52.732,9.794,47.61,8.04,42.244,8.04
			c-9.59,0-18.089,5.621-21.959,14.104c-0.266,0.583-0.815,0.985-1.451,1.065C8.23,24.535,0,33.604,0,44.558
			c0,11.58,9.203,21.026,20.677,21.473v-8.478c-6.799-0.436-12.2-6.091-12.2-12.996c0-7.189,5.849-13.039,13.039-13.039
			c0.363,0,0.72,0.028,1.076,0.058c2.072,0.161,3.948-1.184,4.452-3.193c1.753-6.986,8.004-11.867,15.2-11.867
			c4.111,0,8.002,1.589,10.956,4.472c1.011,0.984,2.442,1.404,3.825,1.116c0.879-0.184,1.779-0.277,2.674-0.277
			c5.034,0,9.529,2.831,11.73,7.387c0.774,1.602,2.467,2.554,4.238,2.372c0.44-0.044,0.879-0.066,1.307-0.066
			c7.189,0,13.039,5.85,13.039,13.039c0,6.905-5.4,12.561-12.199,12.996v8.478c11.474-0.446,20.677-9.894,20.677-21.473
			C98.49,33.216,89.67,23.897,78.527,23.098z"/>
	</g>
</g>
<g>
</g>
<g>
</g>
<g>
</g>
<g>
</g>
<g>
</g>
<g>
</g>
<g>
</g>
<g>
</g>
<g>
</g>
<g>
</g>
<g>
</g>
<g>
</g>
<g>
</g>
<g>
</g>
<g>
</g>
</svg>
