<?xml version="1.0" encoding="iso-8859-1"?>
<!-- Generator: Adobe Illustrator 16.0.0, SVG Export Plug-In . SVG Version: 6.00 Build 0)  -->
<!DOCTYPE svg PUBLIC "-//W3C//DTD SVG 1.1//EN" "http://www.w3.org/Graphics/SVG/1.1/DTD/svg11.dtd">
<svg version="1.1" id="Capa_1" xmlns="http://www.w3.org/2000/svg" xmlns:xlink="http://www.w3.org/1999/xlink" x="0px" y="0px"
	 width="124.156px" height="124.157px" viewBox="0 0 124.156 124.157" style="enable-background:new 0 0 124.156 124.157;"
	 xml:space="preserve">
<g>
	<g>
		<circle cx="102.979" cy="20.405" r="10.875"/>
		<path d="M110.215,33.926c-0.185-0.111-0.377-0.191-0.567-0.273c-1.21-0.806-2.571-1.401-3.957-1.743l-2.71,2.729l-2.626-2.758
			c-0.01,0.002-0.019,0.002-0.027,0.004c-1.414,0.339-2.802,0.946-4.034,1.771c-0.188,0.082-0.378,0.161-0.559,0.27
			c-2.733,1.683-13.81-2.661-21.884-7.663c-1.981-1.23-4.583-0.622-5.813,1.359c-0.052,0.082-0.08,0.172-0.126,0.256l-22.646-9.604
			l-0.9,2.12l23.062,9.779c0.103,1.294,0.782,2.526,1.972,3.262c3.7,2.297,13.896,8.183,22.452,9.088v22.846
			c0,1.137,0.221,2.196,0.606,3.171c-0.028,0.219-0.051,0.439-0.051,0.667l0.004,40.433c0,2.754,2.233,4.987,4.989,4.987
			s4.99-2.233,4.99-4.991l-0.002-34.695c0.195,0.01,0.395,0.022,0.592,0.022c0.04,0,0.079-0.004,0.118-0.004l-0.002,34.677
			c0,2.758,2.232,4.991,4.989,4.991s4.99-2.233,4.99-4.991l0.001-39.733c0.307,0.332,0.667,0.624,1.086,0.851
			c0.643,0.35,1.332,0.514,2.015,0.514c1.497,0,2.946-0.795,3.713-2.205C131.8,47.167,115.554,37.201,110.215,33.926z
			 M103.008,56.162h-0.053l-2.621-3.59l2.621-17.532h0.053l2.621,17.532L103.008,56.162z M114.111,61.584V48.626
			C115.948,51.833,116.399,55.947,114.111,61.584z"/>
		<circle cx="43.721" cy="89.297" r="7.643"/>
		<path d="M48.804,98.801c-0.128-0.076-0.264-0.136-0.398-0.189c-0.852-0.57-1.807-0.986-2.782-1.225l-1.902,1.916l-1.847-1.938
			c-0.006,0.002-0.013,0.002-0.019,0.005c-0.994,0.236-1.971,0.663-2.836,1.244c-0.132,0.056-0.266,0.111-0.392,0.188
			c-2.357,1.446-7.731,4.754-9.331,10.823c-1.6-6.069-6.974-9.377-9.331-10.823c-0.129-0.076-0.264-0.136-0.397-0.189
			c-0.852-0.57-1.808-0.986-2.784-1.225l-1.903,1.916l-1.845-1.938c-0.007,0.002-0.013,0.002-0.018,0.005
			c-0.997,0.236-1.971,0.663-2.836,1.244c-0.135,0.056-0.268,0.111-0.392,0.188c-2.915,1.787-10.433,6.41-9.747,15.582h5.982
			c-0.227-2.099,0.198-3.814,1.032-5.266v5.266h7.773l-1.812-2.479l1.844-12.32h0.036l1.842,12.32l-1.809,2.479h7.771v-5.25
			c0.83,1.445,1.251,3.161,1.025,5.25h5.153h0.828h5.154c-0.229-2.099,0.197-3.814,1.033-5.266v5.266h7.771l-1.81-2.479l1.844-12.32
			h0.035l1.844,12.32l-1.809,2.479h7.77v-5.25c0.83,1.445,1.25,3.161,1.023,5.25h5.983C59.234,105.211,51.715,100.588,48.804,98.801
			z"/>
		<circle cx="14.881" cy="89.297" r="7.643"/>
		<circle cx="73.476" cy="89.299" r="7.643"/>
		<path d="M78.559,98.801c-0.128-0.076-0.265-0.136-0.399-0.189c-0.849-0.57-1.805-0.986-2.781-1.225l-1.902,1.916l-1.847-1.938
			c-0.007,0.002-0.013,0.002-0.02,0.005c-0.994,0.236-1.97,0.663-2.836,1.244c-0.132,0.056-0.266,0.111-0.389,0.188
			c-2.915,1.787-10.437,6.41-9.748,15.582h5.982c-0.228-2.099,0.196-3.814,1.032-5.266v5.266h7.771l-1.81-2.479l1.843-12.32h0.035
			l1.844,12.32l-1.809,2.479h7.771v-5.25c0.828,1.445,1.251,3.161,1.023,5.25h5.982C88.991,105.211,81.472,100.588,78.559,98.801z"
			/>
		<path d="M59.066,71.926c-4.357,0-7.888,3.531-7.888,7.889c0,4.359,3.53,7.893,7.888,7.893c4.358,0,7.891-3.533,7.891-7.893
			C66.957,75.458,63.425,71.926,59.066,71.926z"/>
		<path d="M64.497,89.738c-0.061-0.037-0.123-0.075-0.182-0.113c-0.133-0.08-0.272-0.138-0.411-0.196
			c-0.879-0.586-1.865-1.019-2.872-1.265l-1.966,1.979l-1.905-2c-0.005,0-0.013,0-0.019,0.002c-1.027,0.244-2.034,0.686-2.928,1.283
			c-0.137,0.062-0.274,0.115-0.403,0.195c-0.225,0.139-0.482,0.299-0.754,0.471c-0.167,3.01-1.776,5.642-4.165,7.191
			c0.146,0.084,0.295,0.164,0.435,0.255c0.16,0.069,0.316,0.147,0.469,0.24c1.745,1.071,4.613,2.624,7.199,5.828l0.15-0.456
			l1.903-12.719h0.037c0,0,1.867,12.719,1.902,12.719c2.43-3.213,5.107-4.344,6.785-5.372c0.162-0.103,0.325-0.177,0.462-0.238
			c0.144-0.093,0.295-0.175,0.444-0.263C66.201,95.67,64.551,92.897,64.497,89.738z"/>
		<path d="M20.056,97.287c0.146,0.084,0.296,0.164,0.436,0.255c0.16,0.071,0.314,0.146,0.466,0.24
			c1.486,0.91,4.164,2.555,6.45,5.167l1.872-12.515h0.037l1.902,12.72l6.799-5.372c0.163-0.102,0.328-0.178,0.465-0.238
			c0.144-0.093,0.295-0.175,0.443-0.259c-2.477-1.612-4.126-4.382-4.182-7.535c-0.066-0.042-0.139-0.087-0.199-0.125
			c-0.133-0.08-0.272-0.138-0.41-0.196c-0.879-0.586-1.866-1.019-2.872-1.265l-1.966,1.979l-1.905-2c-0.006,0-0.013,0-0.02,0.002
			c-1.026,0.244-2.033,0.686-2.927,1.283c-0.066,0.028-0.131,0.064-0.196,0.097c0,0.021,0.004,0.042,0.004,0.062
			C24.253,92.811,22.577,95.647,20.056,97.287z"/>
		<circle cx="29.297" cy="79.816" r="7.89"/>
	</g>
</g>
<g>
</g>
<g>
</g>
<g>
</g>
<g>
</g>
<g>
</g>
<g>
</g>
<g>
</g>
<g>
</g>
<g>
</g>
<g>
</g>
<g>
</g>
<g>
</g>
<g>
</g>
<g>
</g>
<g>
</g>
</svg>
